HIERARCHY
ROOT hip
{
	OFFSET 0.000000 0.000000 0.000000 
	CHANNELS 6 Xposition Yposition Zposition Xrotation Zrotation Yrotation
	JOINT abdomen
	{
		OFFSET 0.000000 3.402643 0.000000 
		CHANNELS 3 Xrotation Zrotation Yrotation
		JOINT chest
		{
			OFFSET 0.000000 8.438565 -0.680529 
			CHANNELS 3 Xrotation Zrotation Yrotation
			JOINT neck
			{
				OFFSET 0.000000 10.207942 -0.272212 
				CHANNELS 3 Xrotation Zrotation Yrotation
				JOINT head
				{
					OFFSET 0.000000 3.130431 0.000000 
					CHANNELS 3 Xrotation Zrotation Yrotation
					End Site
					{
						OFFSET 0.000000 3.130435 0.000000 
					}
				}
			}
			JOINT lCollar
			{
				OFFSET 3.470700 6.669187 -0.816635 
				CHANNELS 3 Yrotation Zrotation Xrotation
				JOINT lShldr
				{
					OFFSET 3.198488 0.000000 0.000000 
					CHANNELS 3 Zrotation Yrotation Xrotation
					JOINT lForeArm
					{
						OFFSET 10.139888 0.000000 0.000000 
						CHANNELS 3 Yrotation Zrotation Xrotation
						JOINT lHand
						{
							OFFSET 8.370511 0.000000 0.000000 
							CHANNELS 3 Zrotation Yrotation Xrotation
							End Site
							{
								OFFSET 4.083176 0.000000 0.000000 
							}
						}
					}
				}
			}
			JOINT rCollar
			{
				OFFSET -3.470700 6.669187 -0.816635 
				CHANNELS 3 Yrotation Zrotation Xrotation
				JOINT rShldr
				{
					OFFSET -3.198488 0.000000 0.000000 
					CHANNELS 3 Zrotation Yrotation Xrotation
					JOINT rForeArm
					{
						OFFSET -10.139888 0.000000 0.000000 
						CHANNELS 3 Yrotation Zrotation Xrotation
						JOINT rHand
						{
							OFFSET -8.370511 0.000000 0.000000 
							CHANNELS 3 Zrotation Yrotation Xrotation
							End Site
							{
								OFFSET -4.083176 0.000000 0.000000 
							}
						}
					}
				}
			}
		}
	}
	JOINT lThigh
	{
		OFFSET 5.308129 -1.633274 1.361059 
		CHANNELS 3 Xrotation Zrotation Yrotation
		JOINT lShin
		{
			OFFSET -2.041588 -20.007561 0.000000 
			CHANNELS 3 Xrotation Zrotation Yrotation
			JOINT lFoot
			{
				OFFSET 0.000000 -19.190928 -1.224953 
				CHANNELS 3 Xrotation Yrotation Zrotation
				End Site
				{
					OFFSET 0.000000 -2.449906 4.627600 
				}
			}
		}
	}
	JOINT rThigh
	{
		OFFSET -5.308129 -1.633274 1.361059 
		CHANNELS 3 Xrotation Zrotation Yrotation
		JOINT rShin
		{
			OFFSET 2.041588 -20.007561 0.000000 
			CHANNELS 3 Xrotation Zrotation Yrotation
			JOINT rFoot
			{
				OFFSET 0.000000 -19.190928 -1.224953 
				CHANNELS 3 Xrotation Yrotation Zrotation
				End Site
				{
					OFFSET 0.000000 -2.449906 4.627600 
				}
			}
		}
	}
}
MOTION
Frames: 6
Frame Time: 0.033333
18.497675 43.580589 -20.282547 -1.064453 -3.349610 -59.951740 25.927734 0.273438 1.572312 -10.361328 -4.863282 1.551906 -14.374999 -0.957031 13.515461 17.587891 4.941407 13.760607 17.353514 -8.896485 -0.146484 -58.740234 -18.281250 21.962893 -131.970596 -0.299034 19.951981 26.567188 17.771315 8.036495 -6.269532 15.556642 -0.048828 39.208984 -4.745699 33.483658 114.884041 1.750859 -1.706716 -26.104561 1.658981 -0.903068 -23.825628 21.968397 17.797562 24.843641 -1.436615 -2.121708 -15.645885 -6.332376 -13.679239 -1.436714 -10.024989 -27.908646 39.479168 0.366510 2.514447 -38.307564 -0.776682 12.219161 
18.382446 43.482723 -19.597448 -0.712891 -3.173828 -61.884766 25.585936 0.048828 0.976562 -8.945313 -3.642578 1.054687 -14.892579 -0.800781 13.330079 17.050779 3.710938 13.369142 17.119141 -10.507813 -0.029297 -58.642578 -12.490232 20.173670 -130.930740 -0.238446 21.688923 22.988117 19.430794 7.355555 -6.220703 15.751953 -0.197964 39.375000 1.455078 30.019527 115.938293 1.670743 -1.319919 -22.755999 1.779573 -0.858969 -23.337677 22.740204 17.777338 24.156109 -1.426998 -1.918510 -17.302832 -5.457359 -13.456715 -1.807368 -10.613252 -26.693638 39.841217 0.073532 2.431102 -38.132019 0.175722 13.239674 
18.241108 43.413143 -18.817104 0.166016 -2.812500 -64.697266 24.716797 -0.048828 0.595703 -8.066405 -3.125000 0.722124 -14.882812 0.058594 13.056648 16.875000 2.656250 13.184045 17.080076 -10.898437 -0.087891 -59.160156 -6.455079 17.616093 -128.596527 -0.156383 22.144157 21.206526 15.283522 5.279742 -7.451172 15.429688 -0.078125 42.587891 8.222656 27.080078 116.787056 1.706643 -0.202655 -20.995691 1.686277 -0.747790 -23.336466 23.958071 18.122234 24.306110 -1.440618 -2.084592 -18.760683 -4.675798 -13.574115 -2.519890 -11.307987 -25.111969 39.675423 0.542508 2.253204 -37.043213 1.662555 14.086608 
18.117273 43.350426 -17.923136 0.703125 -2.470703 -67.685692 24.902346 -0.097656 0.048811 -8.759767 -2.236328 0.185547 -13.144531 -0.253906 13.447266 16.513672 2.666016 13.320765 17.119141 -10.673829 0.029297 -59.277340 0.312500 16.709036 -127.449089 -0.422305 18.902611 23.016165 17.360571 6.561339 -7.451172 15.253906 -0.107422 45.644531 12.832032 23.693579 119.404480 1.653657 0.576576 -21.123795 -0.367210 -0.082480 -21.962778 24.892099 18.768028 23.989380 -1.509059 -1.546158 -17.412554 -4.353806 -13.478051 -2.862039 -12.563686 -24.265968 39.314224 0.259153 2.461108 -36.261612 3.086028 15.424803 
18.002922 43.291645 -16.903000 1.054688 -2.285149 -70.674278 25.253908 -0.224609 -0.166054 -8.935547 -1.884766 0.000000 -12.441406 -0.761719 13.671876 15.820313 3.017578 13.467312 16.933592 -10.507812 -0.058594 -58.476563 5.322266 17.950127 -126.625099 -0.442794 18.698362 28.836109 19.009521 9.445392 -7.949218 15.107422 -0.158795 48.935547 17.187498 20.527342 122.050880 1.596706 0.015934 -22.188084 0.208416 -0.381470 -21.259178 25.750072 20.527050 25.217106 -1.343378 -1.927918 -14.032096 -4.631873 -13.194907 -3.203721 -13.669041 -23.070839 38.793133 0.249562 2.279327 -35.425999 4.530108 16.208122 
17.955517 43.283772 -15.780471 1.406250 -1.591797 -73.310822 25.429688 -0.566406 -0.244141 -9.990233 -1.523437 0.155990 -11.044921 -1.445313 13.925534 14.414063 3.896484 13.730468 16.757811 -10.673829 -0.039063 -56.083984 8.662109 17.919922 -125.142723 -0.208967 20.367653 26.998568 14.479818 6.703293 -7.675782 14.013672 -0.058594 52.304688 18.662111 16.689455 124.873055 1.668181 -0.214851 -23.285965 1.417250 -0.837596 -21.774834 26.066525 21.973408 27.320440 -1.271122 -2.040369 -11.376395 -6.684422 -12.938027 -4.082599 -14.690499 -21.108120 38.083633 0.249561 2.432263 -34.765156 5.582316 16.855106 
